<?xml version="1.0" encoding="utf-8"?>
<!-- Generator: Adobe Illustrator 27.0.0, SVG Export Plug-In . SVG Version: 6.00 Build 0)  -->
<svg version="1.1" id="Layer_1" xmlns="http://www.w3.org/2000/svg" x="0px" y="0px"
	 viewBox="0 0 145.8 145.1" style="enable-background:new 0 0 145.8 145.1;" xml:space="preserve">
<style type="text/css">
	.st0{fill:#8DC640;}
	.st1{fill:#FFFFFF;}
</style>
<g>
	<circle class="st0" cx="72.9" cy="72.6" r="67.7"/>
	<path class="st1" d="M60.7,83.3C60.7,83.3,60.7,83.4,60.7,83.3C60.7,83.4,60.7,83.4,60.7,83.3L60.7,83.3c3,3,6.9,4.6,11,4.6
		c4.1,0,8-1.6,11-4.5c0,0,0,0,0,0c0,0,0,0,0,0l0,0c2.9-2.9,4.5-6.8,4.5-11c0-4.1-1.6-8-4.5-11c0,0,0,0,0,0c0,0,0,0,0,0l0,0
		c-2.9-2.9-6.8-4.5-11-4.5c-4.1,0-8,1.6-11,4.5c0,0,0,0,0,0c0,0,0,0,0,0l0,0c-2.9,2.9-4.5,6.8-4.5,11C56.2,76.5,57.8,80.4,60.7,83.3
		L60.7,83.3z M61.8,71h-2.7c0.3-2.4,1.2-4.6,2.7-6.5l1.9,1.9v0c0.6,0.5,1.4,0.5,2,0c0.5-0.5,0.6-1.4,0-2l-1.9-1.9h0
		c1.9-1.5,4.1-2.4,6.5-2.7v2.7c0,0.8,0.6,1.4,1.4,1.4c0.8,0,1.4-0.6,1.4-1.4v-2.7c2.4,0.3,4.6,1.2,6.5,2.7l-1.9,1.9
		c-0.3,0.3-0.4,0.6-0.4,1c0,0.4,0.1,0.7,0.4,1c0.3,0.3,0.6,0.4,1,0.4c0.4,0,0.7-0.2,1-0.4l1.9-1.9l0,0c1.5,1.9,2.4,4.1,2.7,6.5h-2.7
		c-0.8,0-1.4,0.6-1.4,1.4c0,0.8,0.6,1.4,1.4,1.4h2.7h0c-0.3,2.4-1.2,4.6-2.7,6.5l-1.9-1.9h0c-0.6-0.5-1.4-0.5-2,0
		c-0.5,0.5-0.6,1.4,0,2l1.9,1.9v0c-1.9,1.5-4.1,2.4-6.5,2.7v-2.7c0-0.8-0.6-1.4-1.4-1.4c-0.8,0-1.4,0.6-1.4,1.4V85v0
		c-2.4-0.3-4.6-1.2-6.5-2.7l1.9-1.9l0,0c0.5-0.6,0.5-1.4,0-2c-0.5-0.5-1.4-0.6-2,0l-1.9,1.9c-1.5-1.9-2.4-4.1-2.7-6.5h2.7
		c0.8,0,1.4-0.6,1.4-1.4C63.2,71.6,62.6,71,61.8,71L61.8,71z"/>
	<path class="st1" d="M71.7,78c1.5,0,2.9-0.6,4-1.7c1.1-1.1,1.7-2.5,1.7-4c0-1.5-0.6-2.9-1.7-4c-1.1-1.1-2.5-1.7-4-1.7
		c-1.5,0-2.9,0.6-4,1.7c-1.1,1.1-1.7,2.5-1.7,4c0,1.5,0.6,2.9,1.7,4C68.8,77.4,70.2,78,71.7,78z M71.7,69.6c0.7,0,1.5,0.3,2,0.8
		c0.5,0.5,0.8,1.2,0.8,2c0,0.7-0.3,1.5-0.8,2c-0.5,0.5-1.2,0.8-2,0.8c-0.7,0-1.5-0.3-2-0.8c-0.5-0.5-0.8-1.2-0.8-2
		c0-0.7,0.3-1.5,0.8-2C70.2,69.9,71,69.6,71.7,69.6z"/>
	<path class="st1" d="M101.4,28.6c-6.5,0-12.5,3.2-16.2,8.5H43.5c-1.9,0-3.7,0.7-5,2.1c-1.3,1.3-2.1,3.1-2.1,5v56.5
		c0,1.9,0.7,3.7,2.1,5c1.3,1.3,3.1,2.1,5,2.1v2.8v0c0,0.7,0.3,1.5,0.8,2c0.5,0.5,1.2,0.8,2,0.8h14.1c0.7,0,1.5-0.3,2-0.8
		c0.5-0.5,0.8-1.2,0.8-2v-2.8h17v2.8v0c0,0.7,0.3,1.5,0.8,2c0.5,0.5,1.2,0.8,2,0.8h14.1c0.7,0,1.5-0.3,2-0.8c0.5-0.5,0.8-1.2,0.8-2
		v-2.8c1.9,0,3.7-0.7,5-2.1c1.3-1.3,2.1-3.1,2.1-5V67.3c6.1-1.8,11-6.5,13-12.5c2.1-6,1.1-12.7-2.6-17.9
		C113.7,31.7,107.8,28.6,101.4,28.6L101.4,28.6z M47.7,80.9v8.5h-2.8v-8.5H47.7z M47.7,92.2c0.7,0,1.5-0.3,2-0.8
		c0.5-0.5,0.8-1.2,0.8-2v-8.5c0-0.7-0.3-1.5-0.8-2c-0.5-0.5-1.2-0.8-2-0.8V66.7c0.7,0,1.5-0.3,2-0.8c0.5-0.5,0.8-1.2,0.8-2v-8.5
		c0-0.7-0.3-1.5-0.8-2c-0.5-0.5-1.2-0.8-2-0.8v-2.8c0-0.8,0.6-1.4,1.4-1.4h32.5c0,4.3,1.4,8.4,3.9,11.8c2.5,3.4,6.1,5.9,10.2,7.1V95
		c0,0.4-0.1,0.7-0.4,1c-0.3,0.3-0.6,0.4-1,0.4H49.1c-0.8,0-1.4-0.6-1.4-1.4L47.7,92.2z M47.7,55.4v8.5h-2.8v-8.5H47.7z M60.4,110.5
		H46.3v-2.8h14.1V110.5z M97.1,110.5H83v-2.8h14.1L97.1,110.5z M104.2,100.6L104.2,100.6c0,1.1-0.4,2.2-1.2,3
		c-0.8,0.8-1.9,1.2-3,1.2H43.5c-1.1,0-2.2-0.4-3-1.2c-0.8-0.8-1.2-1.9-1.2-3V44.1c0-1.1,0.4-2.2,1.2-3c0.8-0.8,1.9-1.2,3-1.2h40.1
		c-0.9,1.8-1.4,3.7-1.7,5.7H49.1c-1.1,0-2.2,0.4-3,1.2c-0.8,0.8-1.2,1.9-1.2,3v2.8c-0.7,0-1.5,0.3-2,0.8s-0.8,1.2-0.8,2v8.5
		c0,0.7,0.3,1.5,0.8,2c0.5,0.5,1.2,0.8,2,0.8V78c-0.7,0-1.5,0.3-2,0.8s-0.8,1.2-0.8,2v8.5c0,0.7,0.3,1.5,0.8,2
		c0.5,0.5,1.2,0.8,2,0.8V95c0,1.1,0.4,2.2,1.2,3c0.8,0.8,1.9,1.2,3,1.2h45.2c1.1,0,2.2-0.4,3-1.2c0.8-0.8,1.2-1.9,1.2-3V67.9
		c1.9,0.3,3.8,0.3,5.7,0L104.2,100.6z M101.4,65.3c-4.5,0-8.8-1.8-12-5c-3.2-3.2-5-7.5-5-12c0-4.5,1.8-8.8,5-12c3.2-3.2,7.5-5,12-5
		c4.5,0,8.8,1.8,12,5c3.2,3.2,5,7.5,5,12c0,4.5-1.8,8.8-5,12C110.2,63.5,105.9,65.3,101.4,65.3L101.4,65.3z"/>
	<path class="st1" d="M105.6,42.7c0,0.8,0.6,1.4,1.4,1.4c0.8,0,1.4-0.6,1.4-1.4c0-1.6-0.6-3.2-1.6-4.5c-1-1.3-2.5-2.1-4.1-2.5v-0.1
		c0-0.8-0.6-1.4-1.4-1.4c-0.8,0-1.4,0.6-1.4,1.4v0.1c-2.1,0.4-4,1.8-4.9,3.8c-1,2-1,4.3,0,6.2c1,2,2.8,3.4,4.9,3.8V58
		c-0.8-0.3-1.5-0.8-2-1.5c-0.5-0.7-0.8-1.6-0.8-2.4c0-0.8-0.6-1.4-1.4-1.4c-0.8,0-1.4,0.6-1.4,1.4c0,1.6,0.6,3.2,1.6,4.5
		c1,1.3,2.5,2.1,4.1,2.5v0.1c0,0.8,0.6,1.4,1.4,1.4c0.8,0,1.4-0.6,1.4-1.4v-0.1c2.1-0.4,4-1.8,4.9-3.8c1-2,1-4.3,0-6.2
		c-1-2-2.8-3.4-4.9-3.8v-8.4c0.8,0.3,1.5,0.8,2,1.5C105.3,41,105.6,41.8,105.6,42.7L105.6,42.7z M97.1,42.7c0-0.9,0.3-1.7,0.8-2.4
		c0.5-0.7,1.2-1.3,2-1.5v8c-0.8-0.3-1.5-0.8-2-1.5C97.4,44.4,97.1,43.6,97.1,42.7L97.1,42.7z M105.6,54c0,0.9-0.3,1.7-0.8,2.4
		c-0.5,0.7-1.2,1.3-2,1.5v-8c0.8,0.3,1.5,0.8,2,1.5C105.3,52.3,105.6,53.1,105.6,54L105.6,54z"/>
</g>
</svg>
